<?xml version="1.0" encoding="utf-8"?>
<!-- Generator: Adobe Illustrator 24.2.1, SVG Export Plug-In . SVG Version: 6.00 Build 0)  -->
<svg version="1.1" id="Layer_1" xmlns="http://www.w3.org/2000/svg" xmlns:xlink="http://www.w3.org/1999/xlink" x="0px" y="0px"
	 viewBox="0 0 101 29" style="enable-background:new 0 0 101 29;" xml:space="preserve">
<style type="text/css">
	.st0{opacity:0.77;}
	.st1{fill:#FFE354;}
	.st2{clip-path:url(#SVGID_6_);}
	.st3{fill:#3029B3;}
	.st4{fill:#756EFF;}
	.st5{fill:#5D54FF;}
	.st6{fill:#B39917;}
	.st7{fill:#FFFFFF;}
	.st8{clip-path:url(#SVGID_10_);}
	.st9{opacity:0.77;fill:#3029B3;}
	.st10{clip-path:url(#SVGID_14_);}
	.st11{clip-path:url(#SVGID_18_);}
	.st12{clip-path:url(#SVGID_22_);}
	.st13{opacity:0.6;}
	.st14{clip-path:url(#SVGID_24_);}
	.st15{fill:none;stroke:#3029B3;stroke-width:0.25;stroke-miterlimit:10;}
	.st16{fill:#DDDDDD;}
	.st17{clip-path:url(#SVGID_30_);}
	.st18{fill:none;stroke:#FFFFFF;stroke-miterlimit:10;}
</style>
<path class="st3" d="M33.4,6.3v16.2c0,2.5,0.7,4.5,3.7,4.5c0,0.8,0,1.1,0,1.1h-14c0,0,0-0.6,0-1.1c3,0,3.7-2,3.7-4.5V4.3L17,23.4
	h-1.6L5.9,5.4v17.1c0,3.3,0.9,4.5,3.9,4.5c0,0.8,0,1.1,0,1.1H0.9c0,0,0-0.2,0-1.1c3,0,3.4-1.2,3.4-4.5V6.3c0-2.5-0.5-4.5-3.4-4.5
	c0-0.5,0-1.1,0-1.1H11l7.9,15.6l8-15.6h10.3c0,0,0,0.3,0,1.1C34.1,1.8,33.4,3.8,33.4,6.3z"/>
<path class="st3" d="M61.9,25.5c-0.9,2-2.3,2.9-4.5,2.9c-2.6,0-4.4-0.9-4.9-3.1c-1.1,1.7-3,3.1-6.2,3.1c-3.9,0-6.7-2-6.7-6.9v-2.9
	c0-2.5,0.1-4.5-2.9-4.5c0-0.5,0-0.6,0-1.1c2.3,0,5.8-1,8.1-3c0.7,0,1.1,0,1.1,0v10.9c0,2.3,0.7,4.4,3.3,4.4c2.4,0,3.2-2.1,3.2-4.6
	v-2c0-2.5,0.1-4.5-2.9-4.5c0-0.5,0-0.6,0-1.1c2.3,0,5.8-1,8.1-3c0.7,0,1.1,0,1.1,0v12.5c0,1.9,0,3.2,1,3.5c0.7,0.2,1.2-0.2,1.6-0.8
	L61.9,25.5z"/>
<path class="st3" d="M79.5,22.1L79.2,28H63V27l9.2-15.1h-3.6c-2.2,0-3.3,1.8-4.1,4.4c-0.5,0-1,0-1,0l0.4-5.9h15.2v1.1L70,26.5h4.5
	c2.2,0,3.2-1.9,4.1-4.4C79.2,22.1,79.5,22.1,79.5,22.1z"/>
<path class="st3" d="M99.9,22.4c-1.3,2.9-4.1,5.9-8.9,5.9c-5.9,0-9.8-3.8-10.2-8.5c-0.5-6.3,4.2-9.9,10-9.9c5.2,0,8.7,2.8,8.5,8
	l-12,2c0.9,5,8.5,5.7,11.9,1.9C99.2,21.9,99.9,22.4,99.9,22.4z M87.1,18.4l6.4-1.1c0.2-3.7-0.7-6.2-3.4-6
	C87.7,11.6,86.6,14.7,87.1,18.4z"/>
<g>
	<circle class="st3" cx="42" cy="4" r="3"/>
</g>
<g>
	<circle class="st3" cx="53" cy="4" r="3"/>
</g>
</svg>
